# xmcd
#
# Track frame offsets:
#	150
#	21434
#	45505
#	70271
#	88661
#	104841
#	124105
#	138138
#	152007
#	178561
#	200419
#	233071
#
# Disc length: 3374 seconds
#
# Revision: 0
# Processed by: cddbd v1.5.1PL2 Copyright (c) Steve Scherf et al.
# Submitted via: dBpowerAMP V4.0
#
DISCID=a00d2c0c
DTITLE=Barbecue Bob and the Spareribs - Burning Sensation
DYEAR=2006
DGENRE=Blues
TTITLE0=Thinkin With The Wrong Head
TTITLE1=Louise
TTITLE2=1 More Mile
TTITLE3=It's The One
TTITLE4=Stop Breakin My Heart
TTITLE5=Misery Loves Company
TTITLE6=Skyliner
TTITLE7=Wooden Nickel
TTITLE8=The Girl That Radiates That Charm
TTITLE9=Uncle Walter
TTITLE10=The World's on Fire
TTITLE11=Sparerib Rock
EXTD=
EXTT0=
EXTT1=
EXTT2=
EXTT3=
EXTT4=
EXTT5=
EXTT6=
EXTT7=
EXTT8=
EXTT9=
EXTT10=
EXTT11=
PLAYORDER=
